<svg width="88" height="71" viewBox="0 0 88 71" fill="none" xmlns="http://www.w3.org/2000/svg">
<g filter="url(#filter0_d_40_191)">
<path d="M6.49999 15.7572C6.49999 11.1167 6.49999 8.79653 7.40828 7.02414C8.2072 5.46506 9.48203 4.19751 11.0501 3.40316C12.8327 2.50006 15.1662 2.50006 19.8333 2.50006H34.3105C36.3487 2.50006 37.3679 2.50006 38.3271 2.72899C39.177 2.93195 39.99 3.26674 40.7358 3.72104C41.5766 4.23343 42.2975 4.94994 43.7387 6.38299L44.2612 6.90283C45.7025 8.33589 46.4233 9.0524 47.2641 9.56478C48.01 10.0191 48.8229 10.3539 49.6729 10.5568C50.632 10.7858 51.6512 10.7858 53.6895 10.7858H68.1666C72.8337 10.7858 75.1674 10.7858 76.9499 11.6889C78.5179 12.4832 79.7928 13.7508 80.5916 15.3098C81.4999 17.0822 81.4999 19.4025 81.4999 24.0429V47.2429C81.4999 51.8833 81.4999 54.2037 80.5916 55.976C79.7928 57.535 78.5179 58.8027 76.9499 59.5969C75.1674 60.5 72.8337 60.5 68.1666 60.5H19.8333C15.1662 60.5 12.8327 60.5 11.0501 59.5969C9.48203 58.8027 8.2072 57.535 7.40828 55.976C6.49999 54.2037 6.49999 51.8833 6.49999 47.2429V15.7572Z" stroke="black" stroke-width="3" stroke-linecap="round" stroke-linejoin="round" shape-rendering="crispEdges"/>
</g>
<defs>
<filter id="filter0_d_40_191" x="0" y="0" width="87.9999" height="71" filterUnits="userSpaceOnUse" color-interpolation-filters="sRGB">
<feFlood flood-opacity="0" result="BackgroundImageFix"/>
<feColorMatrix in="SourceAlpha" type="matrix" values="0 0 0 0 0 0 0 0 0 0 0 0 0 0 0 0 0 0 127 0" result="hardAlpha"/>
<feOffset dy="4"/>
<feGaussianBlur stdDeviation="2.5"/>
<feComposite in2="hardAlpha" operator="out"/>
<feColorMatrix type="matrix" values="0 0 0 0 0 0 0 0 0 0 0 0 0 0 0 0 0 0 0.25 0"/>
<feBlend mode="normal" in2="BackgroundImageFix" result="effect1_dropShadow_40_191"/>
<feBlend mode="normal" in="SourceGraphic" in2="effect1_dropShadow_40_191" result="shape"/>
</filter>
</defs>
</svg>
